<svg xmlns="http://www.w3.org/2000/svg" viewBox="0 0 980 460">
  <defs>
    <marker id="arrow" markerWidth="10" markerHeight="10" refX="8" refY="3" orient="auto"><path d="M0,0 L8,3 L0,6 Z" fill="#176fc2"/></marker>
  </defs>
  <rect width="980" height="460" rx="24" fill="#fbfdff" stroke="#dbe8f4"/>
  <text x="42" y="52" font-family="Segoe UI, Arial" font-size="28" font-weight="900" fill="#071a32">Multivariate High-Frequency Index Prediction</text>
  <text x="42" y="82" font-family="Segoe UI, Arial" font-size="15" font-weight="700" fill="#607083">Align dense market signals, reduce noise, and forecast index movement with deep sequence models</text>
  <g font-family="Segoe UI, Arial" font-size="14" font-weight="850">
    <rect x="54" y="128" width="172" height="220" rx="18" fill="#123766"/>
    <text x="140" y="162" text-anchor="middle" fill="#fff" font-size="18" font-weight="900">Market Inputs</text>
    <text x="140" y="198" text-anchor="middle" fill="#bfdbfe">index prices</text>
    <text x="140" y="228" text-anchor="middle" fill="#bfdbfe">volume</text>
    <text x="140" y="258" text-anchor="middle" fill="#bfdbfe">technical factors</text>
    <text x="140" y="288" text-anchor="middle" fill="#bfdbfe">external signals</text>

    <rect x="300" y="116" width="190" height="244" rx="18" fill="#f4f8fc" stroke="#dbe8f4"/>
    <text x="395" y="150" text-anchor="middle" fill="#123766" font-size="18" font-weight="900">Time Alignment</text>
    <g fill="#fff" stroke="#dbe8f4">
      <rect x="326" y="180" width="38" height="34"/><rect x="364" y="180" width="38" height="34"/><rect x="402" y="180" width="38" height="34"/><rect x="440" y="180" width="26" height="34"/>
      <rect x="326" y="214" width="38" height="34"/><rect x="364" y="214" width="38" height="34"/><rect x="402" y="214" width="38" height="34"/><rect x="440" y="214" width="26" height="34"/>
      <rect x="326" y="248" width="38" height="34"/><rect x="364" y="248" width="38" height="34"/><rect x="402" y="248" width="38" height="34"/><rect x="440" y="248" width="26" height="34"/>
      <rect x="326" y="282" width="38" height="34"/><rect x="364" y="282" width="38" height="34"/><rect x="402" y="282" width="38" height="34"/><rect x="440" y="282" width="26" height="34"/>
    </g>
    <text x="395" y="338" text-anchor="middle" fill="#607083">many variables x short intervals</text>

    <rect x="568" y="128" width="148" height="72" rx="16" fill="#176fc2"/><text x="642" y="172" text-anchor="middle" fill="#fff">PCA / feature</text>
    <rect x="568" y="226" width="148" height="72" rx="16" fill="#12a6cf"/><text x="642" y="270" text-anchor="middle" fill="#fff">Deep sequence</text>
    <rect x="568" y="324" width="148" height="72" rx="16" fill="#15a879"/><text x="642" y="368" text-anchor="middle" fill="#fff">Validation</text>

    <rect x="792" y="174" width="138" height="118" rx="18" fill="#fff" stroke="#dbe8f4"/>
    <path d="M814 250L835 226L855 238L879 198L908 220" fill="none" stroke="#f47b20" stroke-width="7" stroke-linecap="round" stroke-linejoin="round"/>
    <text x="861" y="328" text-anchor="middle" fill="#123766" font-size="18" font-weight="900">Index Forecast</text>
  </g>
  <g stroke="#176fc2" stroke-width="4" marker-end="url(#arrow)" fill="none">
    <path d="M226 238h68"/>
    <path d="M490 238h72"/>
    <path d="M716 164h68"/>
    <path d="M716 262h68"/>
    <path d="M716 360C762 360 780 304 792 280"/>
  </g>
</svg>