<svg xmlns="http://www.w3.org/2000/svg" viewBox="0 0 980 460">
  <defs><marker id="arrow" markerWidth="10" markerHeight="10" refX="8" refY="3" orient="auto"><path d="M0,0 L8,3 L0,6 Z" fill="#176fc2"/></marker></defs>
  <rect width="980" height="460" rx="24" fill="#fbfdff" stroke="#dbe8f4"/>
  <text x="42" y="52" font-family="Segoe UI, Arial" font-size="28" font-weight="900" fill="#071a32">OHLC Multi-Indicator Tensor</text>
  <text x="42" y="82" font-family="Segoe UI, Arial" font-size="15" font-weight="700" fill="#607083">시간별 금융지표를 2D 이미지 또는 텐서로 변환하는 입력 구조</text>
  <g font-family="Segoe UI, Arial" font-size="13" font-weight="800">
    <rect x="50" y="128" width="356" height="236" rx="16" fill="#f4f8fc" stroke="#dbe8f4"/>
    <text x="72" y="158" font-size="18" font-weight="900" fill="#123766">Aligned Window: t-23 ... t</text>
    <g fill="#fff" stroke="#dbe8f4">
      <rect x="72" y="182" width="52" height="34"/><rect x="124" y="182" width="52" height="34"/><rect x="176" y="182" width="52" height="34"/><rect x="228" y="182" width="52" height="34"/><rect x="280" y="182" width="52" height="34"/><rect x="332" y="182" width="52" height="34"/>
      <rect x="72" y="216" width="52" height="34"/><rect x="124" y="216" width="52" height="34"/><rect x="176" y="216" width="52" height="34"/><rect x="228" y="216" width="52" height="34"/><rect x="280" y="216" width="52" height="34"/><rect x="332" y="216" width="52" height="34"/>
      <rect x="72" y="250" width="52" height="34"/><rect x="124" y="250" width="52" height="34"/><rect x="176" y="250" width="52" height="34"/><rect x="228" y="250" width="52" height="34"/><rect x="280" y="250" width="52" height="34"/><rect x="332" y="250" width="52" height="34"/>
      <rect x="72" y="284" width="52" height="34"/><rect x="124" y="284" width="52" height="34"/><rect x="176" y="284" width="52" height="34"/><rect x="228" y="284" width="52" height="34"/><rect x="280" y="284" width="52" height="34"/><rect x="332" y="284" width="52" height="34"/>
    </g>
    <text x="98" y="204" text-anchor="middle" fill="#176fc2">Open</text><text x="150" y="204" text-anchor="middle" fill="#176fc2">High</text><text x="202" y="204" text-anchor="middle" fill="#176fc2">Low</text><text x="254" y="204" text-anchor="middle" fill="#176fc2">Close</text><text x="306" y="204" text-anchor="middle" fill="#176fc2">Vol</text><text x="358" y="204" text-anchor="middle" fill="#176fc2">VIX</text>
    <text x="50" y="239" fill="#607083">t-23</text><text x="50" y="273" fill="#607083">...</text><text x="50" y="307" fill="#607083">t</text>
  </g>
  <path d="M424 246h96" stroke="#176fc2" stroke-width="4" marker-end="url(#arrow)" fill="none"/>
  <g>
    <rect x="542" y="126" width="190" height="238" rx="18" fill="#123766"/>
    <rect x="564" y="150" width="146" height="146" rx="14" fill="#fff" opacity=".96"/>
    <path d="M580 260L604 224L628 244L652 198L682 230" fill="none" stroke="#12a6cf" stroke-width="8" stroke-linecap="round" stroke-linejoin="round"/>
    <text x="637" y="326" text-anchor="middle" font-family="Segoe UI, Arial" font-size="18" font-weight="900" fill="#fff">Image / Tensor</text>
  </g>
  <path d="M740 246h86" stroke="#176fc2" stroke-width="4" marker-end="url(#arrow)" fill="none"/>
  <g font-family="Segoe UI, Arial" text-anchor="middle">
    <rect x="842" y="142" width="102" height="58" rx="14" fill="#176fc2"/><text x="893" y="178" font-size="16" font-weight="900" fill="#fff">VAE</text>
    <rect x="842" y="216" width="102" height="58" rx="14" fill="#12a6cf"/><text x="893" y="252" font-size="16" font-weight="900" fill="#fff">DDPM</text>
    <rect x="842" y="290" width="102" height="58" rx="14" fill="#15a879"/><text x="893" y="326" font-size="16" font-weight="900" fill="#fff">Forecast</text>
  </g>
</svg>